<?xml version="1.0" standalone="no"?>
<!DOCTYPE svg PUBLIC "-//W3C//DTD SVG 20010904//EN"
 "http://www.w3.org/TR/2001/REC-SVG-20010904/DTD/svg10.dtd">
<svg version="1.0" xmlns="http://www.w3.org/2000/svg"
 width="842.000000pt" height="842.000000pt" viewBox="0 0 842.000000 842.000000"
 preserveAspectRatio="xMidYMid meet">
<metadata>
Created by potrace 1.11, written by Peter Selinger 2001-2013
</metadata>
<g transform="translate(0.000000,842.000000) scale(0.100000,-0.100000)"
fill="#000000" stroke="none">
<path d="M834 5532 c-10 -9 -71 -58 -134 -107 -63 -49 -131 -102 -150 -117
-19 -16 -39 -32 -45 -36 -78 -60 -151 -119 -153 -124 -2 -5 -10 -8 -17 -8 -7
0 -15 -4 -17 -9 -3 -9 -41 -40 -188 -154 -30 -23 -66 -52 -80 -64 -14 -13 -28
-23 -32 -23 -5 0 -8 -4 -8 -10 0 -6 62 -10 165 -10 140 0 165 -2 166 -15 5
-77 -1 -95 -29 -95 -16 0 -17 -38 -16 -517 1 -285 5 -534 9 -553 4 -19 8 -41
8 -47 0 -7 4 -13 9 -13 4 0 8 -7 8 -16 0 -24 50 -124 62 -124 6 0 8 -3 5 -7
-4 -3 4 -16 18 -28 13 -13 21 -25 19 -28 -3 -3 4 -8 15 -12 12 -3 19 -11 16
-16 -4 -5 0 -9 8 -9 8 0 17 -7 21 -15 3 -8 12 -15 21 -15 8 0 15 -5 15 -12 0
-6 3 -9 6 -5 4 3 13 0 21 -8 8 -8 23 -15 34 -15 10 0 19 -5 19 -10 0 -6 3 -9
8 -8 8 2 63 -12 77 -20 26 -15 181 -21 255 -10 36 6 73 11 83 11 9 1 17 5 17
9 0 4 8 8 18 8 10 0 27 7 38 15 12 8 24 11 28 8 3 -3 6 0 6 7 0 7 3 10 7 7 13
-13 163 119 163 144 0 5 4 9 8 9 7 0 40 57 47 80 1 3 5 14 9 25 16 42 19 50
22 65 14 60 17 174 17 605 l1 490 -22 3 c-19 3 -22 10 -22 46 0 23 5 47 12 54
8 8 62 12 175 12 90 0 163 3 162 8 0 4 -57 51 -127 104 -143 109 -164 126
-236 183 -28 23 -78 61 -111 85 -33 24 -62 46 -65 50 -8 9 -318 250 -322 250
-2 0 -13 -8 -24 -18z m-14 -902 l0 -100 -95 0 -95 0 0 100 0 100 95 0 95 0 0
-100z m240 0 l0 -100 -95 0 -95 0 0 100 0 100 95 0 95 0 0 -100z m-240 -220
l0 -100 -95 0 -95 0 0 100 0 100 95 0 95 0 0 -100z m240 0 l0 -100 -95 0 -95
0 0 100 0 100 95 0 95 0 0 -100z"/>
<path d="M5798 4812 c-7 -2 -20 -6 -28 -9 -8 -4 -17 -7 -20 -7 -18 -5 -50 -33
-50 -44 0 -7 -4 -10 -10 -7 -5 3 -10 -3 -10 -14 0 -12 -4 -21 -8 -21 -9 0 -12
-17 -11 -65 0 -48 2 -55 11 -55 5 0 6 -4 3 -10 -3 -5 -2 -10 4 -10 5 0 13 -9
16 -20 15 -46 151 -82 189 -51 8 7 20 10 26 6 5 -3 10 1 10 9 0 9 6 16 14 16
8 0 18 5 22 12 5 7 2 9 -7 4 -8 -4 -6 -1 3 7 10 8 15 17 11 20 -3 4 -2 7 4 7
5 0 10 6 11 13 0 6 3 23 6 37 9 38 -11 94 -48 133 -18 20 -36 33 -40 30 -3 -4
-6 -2 -6 4 0 11 -67 22 -92 15z"/>
<path d="M3207 4325 c-20 -7 -37 -10 -37 -7 0 3 -8 -2 -18 -11 -10 -10 -22
-14 -25 -10 -4 3 -7 1 -7 -6 0 -7 -4 -10 -9 -6 -6 3 -14 -3 -20 -12 -6 -10
-11 -14 -11 -9 0 4 -21 -13 -46 -38 -62 -63 -98 -148 -95 -221 4 -66 5 -75 14
-75 4 0 6 -4 3 -9 -5 -8 44 -92 69 -117 7 -8 19 -14 25 -14 6 0 8 -5 4 -12 -4
-6 -3 -8 3 -5 6 4 21 -2 33 -13 12 -11 27 -17 31 -14 5 3 9 0 9 -6 0 -6 5 -8
10 -5 6 3 10 1 10 -6 0 -7 3 -10 6 -7 3 4 20 2 37 -3 18 -6 43 -12 57 -15 14
-3 48 -11 77 -18 28 -8 54 -11 57 -8 3 3 6 0 6 -7 0 -7 4 -9 10 -6 12 7 53
-19 43 -28 -3 -4 -1 -7 6 -7 7 0 10 -4 7 -9 -4 -5 -1 -11 6 -13 9 -3 10 -17 3
-53 -8 -40 -16 -51 -45 -66 -39 -21 -170 -27 -170 -8 0 5 -4 8 -9 5 -4 -3 -19
3 -31 14 -13 11 -27 20 -32 20 -5 0 -6 5 -3 10 3 6 1 10 -6 10 -7 0 -10 3 -6
6 3 4 0 13 -8 21 -8 8 -15 23 -15 34 0 22 -1 22 -55 9 -22 -5 -51 -11 -65 -14
-14 -3 -40 -9 -58 -15 -18 -5 -36 -10 -40 -11 -9 -1 -3 -37 14 -78 7 -18 13
-35 13 -38 -2 -20 149 -144 181 -149 3 0 15 -6 28 -13 12 -7 22 -10 22 -8 0 3
12 1 28 -5 15 -6 65 -10 112 -10 74 0 96 2 145 15 34 8 85 31 85 39 0 4 5 5
10 2 6 -3 10 -1 10 4 0 6 5 11 11 11 6 0 32 21 57 47 26 26 40 43 32 38 -8 -4
-4 4 9 18 14 15 21 27 17 27 -5 0 -3 6 3 13 6 8 8 17 4 20 -3 4 -1 7 6 7 7 0
10 4 7 9 -3 5 -2 31 3 57 6 29 6 55 0 66 -5 9 -10 28 -11 42 -1 15 -6 26 -10
26 -4 0 -8 7 -8 15 0 8 -4 15 -9 15 -5 0 -12 10 -15 23 -5 20 -86 90 -108 93
-4 1 -13 2 -19 3 -5 0 -7 6 -3 13 5 8 2 9 -9 5 -10 -4 -17 -1 -17 5 0 6 -3 9
-6 5 -3 -3 -17 -2 -30 3 -14 6 -35 12 -47 14 -12 3 -33 7 -47 10 -14 3 -41 9
-60 13 -46 9 -49 10 -55 13 -6 3 -12 5 -42 15 -13 4 -20 11 -17 16 3 5 -2 12
-11 15 -12 5 -15 16 -12 43 7 55 16 70 57 91 43 22 129 22 170 0 25 -13 69
-58 68 -69 0 -3 1 -9 2 -13 1 -5 3 -14 4 -20 1 -7 8 -11 16 -10 28 7 55 13 80
17 114 21 128 27 123 49 -2 11 -5 27 -5 34 -1 6 -5 12 -10 12 -5 0 -6 5 -3 10
3 6 1 10 -4 10 -6 0 -11 9 -11 20 0 10 -9 24 -20 30 -11 6 -20 17 -20 25 0 7
-9 16 -19 20 -11 3 -22 12 -25 20 -3 8 -12 15 -21 15 -8 0 -15 5 -15 10 0 6
-9 10 -21 10 -13 0 -18 4 -13 12 4 6 3 9 -2 6 -5 -3 -20 -1 -34 5 -43 17 -53
19 -145 22 -56 2 -105 -2 -128 -10z"/>
<path d="M6745 4327 c-22 -4 -48 -8 -57 -8 -10 0 -18 -4 -18 -9 0 -5 -14 -11
-31 -15 -17 -4 -33 -13 -36 -21 -3 -8 -8 -12 -13 -9 -7 4 -51 -40 -49 -51 1
-7 -22 -24 -32 -24 -3 0 -5 21 -4 48 0 26 -1 53 -3 60 -3 9 -38 12 -128 12
-92 0 -124 -3 -124 -12 -4 -111 -1 -988 3 -994 6 -10 243 -11 253 -1 4 3 7
152 8 329 1 280 4 327 18 353 18 33 83 109 73 85 -5 -12 -4 -12 7 1 7 9 19 14
26 12 6 -3 12 0 12 5 0 13 127 7 144 -7 7 -6 16 -8 19 -4 4 3 7 1 7 -6 0 -7 3
-10 8 -8 4 3 13 -1 20 -9 7 -8 9 -14 5 -14 -4 0 0 -5 10 -11 9 -6 15 -14 12
-20 -4 -5 -1 -9 5 -9 6 0 9 -4 5 -9 -3 -5 -1 -12 4 -16 6 -3 10 -135 11 -337
0 -182 2 -333 4 -337 3 -5 223 -7 259 -2 9 1 4 723 -6 758 -3 12 -10 30 -16
41 -6 11 -7 22 -4 26 3 3 1 6 -6 6 -7 0 -10 4 -6 9 3 5 -1 16 -9 24 -8 8 -12
17 -9 21 4 3 1 6 -5 6 -7 0 -21 15 -32 33 -11 17 -20 29 -20 25 0 -5 -9 0 -19
10 -38 34 -49 41 -55 35 -3 -4 -6 -2 -6 4 0 6 -15 14 -32 18 -18 4 -40 9 -48
11 -34 9 -107 9 -145 1z"/>
<path d="M2176 4319 c-22 -5 -46 -15 -55 -22 -12 -10 -13 -9 -6 2 10 17 -57
-29 -68 -46 -4 -7 -13 -13 -18 -13 -16 0 -39 -27 -31 -35 4 -4 -2 -5 -13 -3
-17 3 -20 11 -20 56 l1 52 -128 0 -128 0 0 -703 0 -702 130 0 c72 0 130 2 131
5 0 3 2 110 2 239 2 190 5 235 16 239 8 3 11 0 8 -5 -4 -6 5 -16 18 -23 14 -7
25 -17 25 -22 0 -5 5 -6 10 -3 6 3 10 1 10 -4 0 -6 7 -11 15 -11 8 0 15 -5 15
-11 0 -5 4 -8 9 -4 5 3 12 1 16 -5 4 -6 11 -8 16 -5 5 4 9 2 9 -2 0 -10 9 -11
105 -17 73 -5 139 4 190 25 17 7 33 12 38 11 4 -1 7 3 7 8 0 5 3 9 8 8 11 -3
82 43 82 52 0 5 9 12 20 15 11 4 18 11 15 16 -4 5 1 12 9 15 8 3 18 14 21 25
4 11 11 17 16 14 5 -4 9 3 9 14 0 12 4 21 9 21 7 0 31 46 38 75 1 6 11 40 22
77 27 92 21 292 -10 351 -5 9 -7 17 -4 17 9 0 -58 124 -72 133 -7 4 -13 15
-13 24 0 9 -3 13 -7 10 -3 -4 -26 13 -50 38 -23 25 -43 42 -43 39 0 -3 -13 4
-29 15 -15 11 -31 18 -35 14 -3 -3 -6 -1 -6 5 0 6 -7 9 -15 6 -8 -4 -15 -2
-15 3 0 10 -7 11 -125 17 -49 3 -108 1 -129 -5z m135 -241 c32 -9 154 -98 135
-98 -4 0 1 -14 10 -32 9 -17 19 -45 22 -62 9 -51 5 -161 -7 -199 -73 -220
-378 -234 -472 -22 -31 69 -33 191 -5 260 11 28 25 53 31 57 5 4 6 8 1 8 -17
0 87 78 117 88 44 14 122 14 168 0z"/>
<path d="M7760 4318 c-19 -5 -42 -11 -50 -14 -8 -3 -17 -5 -20 -6 -10 -1 -88
-47 -110 -65 -37 -30 -81 -73 -75 -73 3 0 -6 -12 -20 -27 -14 -16 -31 -43 -37
-60 -7 -18 -16 -33 -20 -33 -4 0 -7 -3 -7 -7 1 -5 0 -10 -1 -13 -1 -3 -3 -12
-5 -20 -2 -8 -7 -26 -11 -40 -12 -42 -13 -234 -2 -247 6 -7 8 -13 4 -13 -4 0
0 -13 9 -30 9 -16 13 -30 10 -30 -8 0 27 -63 40 -72 6 -4 6 -8 2 -8 -5 0 -2
-7 5 -15 33 -37 43 -50 43 -60 0 -5 5 -10 12 -10 6 0 24 -13 38 -30 15 -16 24
-23 20 -15 -5 8 3 5 17 -7 13 -13 30 -23 36 -23 7 0 12 -5 12 -11 0 -5 5 -7
10 -4 6 3 10 1 10 -6 0 -7 3 -9 7 -6 3 4 12 2 20 -4 7 -6 13 -9 13 -6 0 3 20
-1 45 -8 50 -16 190 -12 235 5 3 1 8 2 13 1 4 0 7 4 7 11 0 6 3 9 6 5 7 -7 71
38 95 66 28 34 38 12 33 -66 -3 -39 -5 -80 -5 -89 0 -10 -5 -20 -10 -23 -5 -4
-7 -11 -4 -16 4 -5 1 -9 -5 -9 -6 0 -8 -4 -5 -10 3 -5 1 -10 -4 -10 -6 0 -10
-4 -8 -8 3 -10 -60 -72 -76 -75 -7 -1 -15 -6 -18 -11 -4 -5 -23 -9 -43 -10
-20 0 -36 -4 -36 -7 0 -4 -26 -5 -57 -3 -66 3 -83 6 -100 17 -7 5 -13 5 -13 2
0 -7 -56 31 -77 51 -7 7 -13 17 -13 23 0 6 -4 11 -10 11 -5 0 -10 9 -10 20 0
11 -5 20 -11 20 -6 0 -9 6 -6 14 3 8 -1 20 -9 26 -9 8 -14 9 -14 2 0 -6 -8
-11 -17 -10 -10 0 -29 -3 -43 -7 -14 -3 -29 -7 -35 -8 -5 -2 -16 -6 -22 -10
-7 -5 -17 -6 -22 -2 -5 3 -13 0 -16 -6 -4 -5 -13 -8 -21 -5 -8 3 -14 1 -14 -4
0 -6 -6 -9 -12 -7 -17 3 -18 -33 -2 -57 7 -10 10 -25 7 -32 -3 -8 0 -14 6 -14
6 0 11 -7 11 -15 0 -8 5 -15 11 -15 5 0 7 -5 4 -10 -3 -6 1 -13 9 -16 9 -3 16
-12 16 -20 0 -8 5 -14 10 -14 6 0 10 -7 10 -17 0 -9 3 -14 6 -10 3 3 20 -7 36
-22 34 -32 147 -92 181 -97 12 -2 33 -6 47 -10 45 -13 275 -8 275 6 0 1 11 3
25 6 74 12 198 99 250 174 13 19 29 38 35 42 5 4 6 8 2 8 -4 0 -2 10 5 23 7
12 13 24 13 27 1 3 7 22 14 43 23 67 24 84 28 595 l4 503 -128 -3 -128 -3 -3
-47 c-2 -27 -7 -48 -11 -48 -4 0 -22 14 -39 30 -18 17 -36 30 -42 30 -5 0 -10
5 -10 12 0 6 -3 8 -7 5 -3 -4 -12 1 -20 11 -8 9 -12 12 -9 5 4 -8 -4 -7 -23 3
-36 18 -181 25 -231 12z m216 -236 c18 1 73 -31 100 -59 49 -50 67 -99 69
-183 2 -98 -18 -152 -79 -211 -82 -80 -249 -74 -336 11 -23 22 -38 40 -35 40
3 0 -2 11 -11 25 -17 26 -23 57 -24 125 -2 99 40 184 113 229 40 24 130 40
170 30 15 -4 30 -8 33 -7z"/>
<path d="M3856 4283 c4 -16 11 -36 16 -46 5 -9 6 -22 3 -27 -3 -6 -1 -10 4
-10 6 0 10 -3 10 -7 -1 -5 0 -11 1 -15 1 -5 3 -11 4 -15 1 -5 7 -21 13 -38 10
-25 34 -107 37 -125 1 -3 7 -18 13 -35 15 -37 47 -146 48 -160 0 -5 4 -13 8
-16 4 -3 9 -17 10 -30 0 -13 4 -26 7 -29 5 -4 45 -129 55 -170 2 -8 4 -16 5
-17 2 -2 3 -6 5 -10 1 -5 4 -15 8 -23 10 -26 30 -95 28 -95 -1 0 3 -13 9 -30
7 -16 13 -38 16 -49 7 -38 19 -41 151 -40 150 2 148 2 140 11 -4 3 -2 12 4 20
6 7 8 13 4 13 -4 0 -2 7 5 15 7 8 9 15 5 15 -4 0 -2 7 5 15 7 8 10 15 7 15 -3
0 4 24 15 53 23 61 23 62 33 105 4 17 11 32 16 32 4 0 7 8 7 18 0 9 9 41 20
70 12 28 19 52 16 52 -4 0 -1 7 6 15 7 8 10 15 7 15 -4 0 2 20 13 44 10 24 16
47 13 50 -4 3 -1 6 5 6 6 0 9 7 6 15 -4 8 -1 15 7 15 7 0 10 3 6 6 -3 4 0 21
8 39 7 19 10 36 7 40 -4 4 2 6 12 4 11 -2 19 -7 18 -11 -1 -4 7 -28 18 -53 11
-25 17 -45 13 -45 -3 0 0 -7 7 -15 7 -8 9 -15 4 -15 -5 0 -4 -4 3 -8 7 -4 13
-22 15 -40 1 -18 5 -32 9 -32 6 0 11 -12 24 -62 2 -5 4 -10 5 -13 1 -3 4 -9 5
-15 1 -5 3 -11 5 -12 1 -2 3 -10 5 -18 2 -8 18 -55 35 -105 18 -49 33 -96 33
-102 0 -7 3 -13 7 -13 4 0 7 -6 8 -12 2 -23 17 -70 31 -97 6 -12 35 -15 137
-15 l129 0 23 64 c12 36 24 75 26 87 3 13 7 27 11 33 3 5 8 19 11 30 2 11 6
29 8 39 3 11 10 29 16 40 6 12 8 21 5 21 -3 0 -1 9 5 21 6 11 13 28 15 37 2 9
15 54 30 99 14 45 28 94 31 110 3 15 10 31 17 35 6 4 8 10 4 14 -4 4 -2 13 4
21 6 7 9 13 6 13 -3 0 0 15 8 34 8 18 11 36 8 40 -4 3 -1 6 6 6 7 0 9 5 6 10
-3 6 -3 16 2 23 4 6 8 14 8 17 1 3 12 39 25 80 13 41 25 78 26 83 1 4 2 8 3
10 2 1 4 12 7 25 4 22 3 22 -126 22 -72 0 -130 -3 -131 -7 -1 -12 -6 -32 -24
-93 -9 -30 -18 -62 -20 -70 -2 -8 -4 -15 -5 -15 -1 0 -3 -8 -5 -17 -2 -9 -9
-34 -16 -55 -7 -21 -12 -44 -11 -50 2 -7 -2 -13 -8 -13 -6 0 -10 -6 -9 -12 3
-15 -10 -78 -19 -93 -4 -5 -8 -21 -10 -35 -2 -13 -8 -30 -14 -37 -6 -8 -8 -16
-5 -20 4 -3 2 -12 -4 -20 -6 -7 -9 -13 -5 -13 3 0 -1 -17 -9 -37 -9 -21 -16
-40 -15 -43 1 -3 -7 -7 -17 -9 -10 -2 -15 0 -11 4 4 4 1 20 -8 36 -8 16 -12
29 -8 29 4 0 2 6 -4 13 -6 6 -10 14 -11 17 0 3 -2 12 -5 20 -14 44 -26 86 -27
95 0 6 -5 16 -11 23 -6 6 -7 12 -3 12 4 0 2 7 -5 15 -7 8 -10 15 -6 15 4 0 -1
14 -9 30 -9 17 -13 35 -10 39 3 5 1 11 -4 13 -6 1 -12 14 -14 28 -3 14 -10 37
-15 51 -6 15 -8 30 -5 33 4 3 1 6 -5 6 -7 0 -12 11 -12 24 0 14 -4 27 -9 30
-4 3 -12 20 -16 38 -4 18 -9 36 -10 41 -1 4 -3 12 -4 17 -1 6 -57 10 -146 10
-138 0 -145 -1 -145 -20 0 -11 -5 -20 -12 -20 -6 0 -9 -3 -5 -6 3 -4 0 -22 -8
-40 -8 -19 -15 -38 -16 -42 -2 -8 -4 -16 -18 -62 -6 -19 -11 -38 -11 -43 0 -4
-7 -21 -15 -37 -8 -16 -16 -33 -16 -37 -2 -10 -4 -16 -20 -68 -7 -22 -12 -43
-11 -47 1 -5 -3 -8 -9 -8 -5 0 -8 -3 -6 -7 3 -5 0 -19 -6 -33 -5 -14 -12 -34
-14 -45 -2 -11 -8 -22 -13 -23 -6 -2 -7 -8 -4 -13 3 -6 0 -16 -6 -24 -7 -8 -9
-15 -5 -15 4 0 3 -6 -3 -12 -6 -7 -10 -17 -11 -23 0 -5 -8 -12 -18 -14 -10 -2
-15 0 -11 4 4 4 1 23 -7 41 -8 19 -12 34 -9 34 2 0 -3 16 -11 37 -8 20 -13 38
-10 41 3 3 1 10 -4 16 -6 6 -12 25 -15 41 -2 17 -5 31 -6 33 -2 1 -4 7 -5 12
-1 6 -3 11 -5 13 -1 1 -3 9 -5 17 -2 8 -7 26 -10 40 -3 14 -7 30 -8 35 -2 6
-6 16 -10 23 -5 6 -5 17 -2 22 3 6 1 10 -4 10 -6 0 -10 3 -10 8 1 4 0 9 -1 12
-1 3 -3 12 -5 20 -2 8 -11 42 -20 75 -9 33 -19 70 -22 83 -5 22 -8 22 -144 22
l-139 0 6 -27z"/>
<path d="M5695 4298 c-3 -7 -4 -235 -3 -507 l3 -495 128 0 c120 -1 128 0 133
19 2 11 3 238 2 505 l-3 485 -128 3 c-96 2 -129 -1 -132 -10z"/>
</g>
</svg>
